<svg width="34" height="24" viewBox="0 0 34 24" fill="none" xmlns="http://www.w3.org/2000/svg">
<path d="M33.2888 3.76344C32.8978 2.29152 31.7461 1.13127 30.2827 0.737438C27.6321 0.0234377 17 0.0234375 17 0.0234375C17 0.0234375 6.36792 0.0234377 3.71592 0.737438C2.25392 1.13127 1.10217 2.2901 0.711167 3.76344C0 6.43244 0 11.9999 0 11.9999C0 11.9999 0 17.5674 0.711167 20.2364C1.10217 21.7084 2.25392 22.8686 3.71733 23.2624C6.36792 23.9764 17 23.9764 17 23.9764C17 23.9764 27.6321 23.9764 30.2841 23.2624C31.7461 22.8686 32.8978 21.7098 33.2902 20.2364C34 17.5674 34 11.9999 34 11.9999C34 11.9999 34 6.43244 33.2888 3.76344ZM13.5235 17.056V6.94385L22.4088 11.9999L13.5235 17.056Z" fill="#896E69"/>
</svg>
