<svg width="34" height="34" viewBox="0 0 34 34" fill="none" xmlns="http://www.w3.org/2000/svg">
<path d="M17 3.06283C21.539 3.06283 22.0773 3.07983 23.8694 3.162C25.7224 3.247 27.6307 3.66917 28.9808 5.01925C30.3436 6.38208 30.753 8.27192 30.838 10.1306C30.9202 11.9227 30.9372 12.461 30.9372 17C30.9372 21.539 30.9202 22.0773 30.838 23.8694C30.7544 25.7125 30.3223 27.6392 28.9808 28.9808C27.6179 30.3436 25.7295 30.753 23.8694 30.838C22.0773 30.9202 21.539 30.9372 17 30.9372C12.461 30.9372 11.9227 30.9202 10.1306 30.838C8.30167 30.7544 6.3495 30.3124 5.01925 28.9808C3.6635 27.625 3.247 25.7168 3.162 23.8694C3.07983 22.0773 3.06283 21.539 3.06283 17C3.06283 12.461 3.07983 11.9227 3.162 10.1306C3.24558 8.29458 3.68192 6.35658 5.01925 5.01925C6.37925 3.65925 8.27617 3.247 10.1306 3.162C11.9227 3.07983 12.461 3.06283 17 3.06283ZM17 0C12.3831 0 11.8037 0.0198333 9.99033 0.102C7.36242 0.222417 4.75292 0.953417 2.85317 2.85317C0.946333 4.76 0.222417 7.36383 0.102 9.99033C0.0198333 11.8037 0 12.3831 0 17C0 21.6169 0.0198333 22.1963 0.102 24.0097C0.222417 26.6348 0.95625 29.2513 2.85317 31.1468C4.75858 33.0522 7.36667 33.7776 9.99033 33.898C11.8037 33.9802 12.3831 34 17 34C21.6169 34 22.1963 33.9802 24.0097 33.898C26.6362 33.7776 29.2485 33.0452 31.1468 31.1468C33.0551 29.2386 33.7776 26.6362 33.898 24.0097C33.9802 22.1963 34 21.6169 34 17C34 12.3831 33.9802 11.8037 33.898 9.99033C33.7776 7.36242 33.0452 4.7515 31.1468 2.85317C29.2442 0.950583 26.6291 0.221 24.0097 0.102C22.1963 0.0198333 21.6169 0 17 0Z" fill="#896E69"/>
<path d="M17 8.2705C12.1791 8.2705 8.2705 12.1791 8.2705 17C8.2705 21.8209 12.1791 25.7295 17 25.7295C21.8209 25.7295 25.7295 21.8209 25.7295 17C25.7295 12.1791 21.8209 8.2705 17 8.2705ZM17 22.6667C13.8706 22.6667 11.3333 20.1294 11.3333 17C11.3333 13.8706 13.8706 11.3333 17 11.3333C20.1294 11.3333 22.6667 13.8706 22.6667 17C22.6667 20.1294 20.1294 22.6667 17 22.6667Z" fill="#896E69"/>
<path d="M26.0752 9.96483C27.2018 9.96483 28.1152 9.05149 28.1152 7.92483C28.1152 6.79817 27.2018 5.88483 26.0752 5.88483C24.9485 5.88483 24.0352 6.79817 24.0352 7.92483C24.0352 9.05149 24.9485 9.96483 26.0752 9.96483Z" fill="#896E69"/>
</svg>
